<svg width="50" height="50" viewBox="0 0 50 50" fill="none" xmlns="http://www.w3.org/2000/svg">
<path fill-rule="evenodd" clip-rule="evenodd" d="M32.6239 20.265C32.5726 19.9231 32.282 19.6837 31.9401 19.6837H28.0085V18.0769C28.0085 16.4188 26.6581 15.0684 25 15.0684C23.3419 15.0684 21.9915 16.4188 21.9915 18.0769V19.6837H18.0598C17.718 19.6837 17.4273 19.9231 17.376 20.265L15.0854 34.1111C15.0513 34.3162 15.1025 34.5214 15.2393 34.6752C15.376 34.829 15.5641 34.9145 15.7692 34.9145H34.2308H34.2479C34.641 34.9145 34.9487 34.6068 34.9487 34.2137C34.9487 34.1284 34.9317 34.0602 34.9147 33.9921L34.9145 33.9914L32.6239 20.265ZM23.3931 18.0769C23.3931 17.188 24.1111 16.4701 24.9999 16.4701C25.8889 16.4701 26.6068 17.188 26.6068 18.0769V19.6837H23.3931V18.0769ZM18.6581 21.0854L16.5897 33.5299H33.4102L31.3419 21.0854H28.0085V25C28.0085 25.3931 27.7008 25.7008 27.3077 25.7008C26.9145 25.7008 26.6068 25.3931 26.6068 25V21.0854H23.3931V25C23.3931 25.3931 23.0854 25.7008 22.6923 25.7008C22.2991 25.7008 21.9915 25.3931 21.9915 25V21.0854H18.6581Z" fill="white"/>
</svg>
