<svg width="30" height="30" viewBox="0 0 30 30" fill="none" xmlns="http://www.w3.org/2000/svg">
<path fill-rule="evenodd" clip-rule="evenodd" d="M17.7487 9.82999C19.3077 9.82999 20.518 10.9 20.8564 12.56C21.3487 15.03 19.7795 18.33 15.1641 20.17C15.1128 20.19 15.0615 20.2 15.0103 20.2C14.959 20.2 14.9077 20.19 14.8564 20.17C10.2308 18.37 8.65129 15.06 9.1436 12.57C9.47179 10.89 10.6923 9.81 12.2513 9.81C13.1333 9.81 14.0769 10.16 15.0103 10.84C15.9333 10.18 16.8769 9.82999 17.7487 9.82999ZM9.9641 12.72C9.5436 14.85 10.9487 17.71 15.0103 19.35C19.0615 17.68 20.4564 14.83 20.0359 12.72C19.7795 11.46 18.8872 10.65 17.7487 10.65C16.9795 10.65 16.1282 11 15.2667 11.67C15.1128 11.79 14.8974 11.79 14.7436 11.67C13.8821 10.98 13.0205 10.62 12.2513 10.62C11.1128 10.62 10.2103 11.45 9.9641 12.72Z" fill="#AAB2B7"/>
</svg>
