<svg width="40" height="40" viewBox="0 0 40 40" fill="none" xmlns="http://www.w3.org/2000/svg">
<path fill-rule="evenodd" clip-rule="evenodd" d="M26.099 16.212C26.058 15.9385 25.8253 15.747 25.5519 15.747H22.4066V14.4615C22.4066 13.135 21.3263 12.0547 19.9999 12.0547C18.6732 12.0547 17.5929 13.135 17.5929 14.4615V15.747H14.4477C14.1742 15.747 13.9416 15.9385 13.9005 16.212L12.0683 27.2889C12.0409 27.453 12.0819 27.6171 12.1913 27.7402C12.3007 27.8633 12.4511 27.9316 12.6151 27.9316H27.3844H27.3981C27.7125 27.9316 27.9589 27.6855 27.9589 27.3709C27.9589 27.3035 27.9455 27.2494 27.9318 27.1954L27.9313 27.1932L26.099 16.212ZM18.7143 14.4615C18.7143 13.7504 19.2887 13.1761 19.9997 13.1761C20.7108 13.1761 21.2853 13.7504 21.2853 14.4615V15.747H18.7143V14.4615ZM14.9264 16.8684L13.2716 26.8239H26.7279L25.0734 16.8684H22.4066V20C22.4066 20.3145 22.1605 20.5607 21.8461 20.5607C21.5314 20.5607 21.2853 20.3145 21.2853 20V16.8684H18.7143V20C18.7143 20.3145 18.4682 20.5607 18.1537 20.5607C17.8393 20.5607 17.5929 20.3145 17.5929 20V16.8684H14.9264Z" fill="#AAB2B7"/>
</svg>
