<svg width="315" height="143" viewBox="0 0 315 143" fill="none" xmlns="http://www.w3.org/2000/svg">
<path d="M0.5 5C0.5 2.51472 2.51472 0.5 5 0.5H310C312.485 0.5 314.5 2.51472 314.5 5V138C314.5 140.485 312.485 142.5 310 142.5H5C2.51472 142.5 0.5 140.485 0.5 138V5Z" stroke="#D7DDE1"/>
<path fill-rule="evenodd" clip-rule="evenodd" d="M0 71H315V72H0V71Z" fill="#D7DDE1"/>
<path fill-rule="evenodd" clip-rule="evenodd" d="M105 0H106V143H105V0Z" fill="#D7DDE1"/>
<path fill-rule="evenodd" clip-rule="evenodd" d="M210 0H211V143H210V0Z" fill="#D7DDE1"/>
<g filter="url(#filter0_d_0_89)">
<path fill-rule="evenodd" clip-rule="evenodd" d="M106 1H210V71H106V1Z" fill="white"/>
</g>
<defs>
<filter id="filter0_d_0_89" x="86" y="-9" width="144" height="110" filterUnits="userSpaceOnUse" color-interpolation-filters="sRGB">
<feFlood flood-opacity="0" result="BackgroundImageFix"/>
<feColorMatrix in="SourceAlpha" type="matrix" values="0 0 0 0 0 0 0 0 0 0 0 0 0 0 0 0 0 0 127 0" result="hardAlpha"/>
<feOffset dy="10"/>
<feGaussianBlur stdDeviation="10"/>
<feColorMatrix type="matrix" values="0 0 0 0 0 0 0 0 0 0 0 0 0 0 0 0 0 0 0.1 0"/>
<feBlend mode="normal" in2="BackgroundImageFix" result="effect1_dropShadow_0_89"/>
<feBlend mode="normal" in="SourceGraphic" in2="effect1_dropShadow_0_89" result="shape"/>
</filter>
</defs>
</svg>
