<svg width="40" height="40" viewBox="0 0 40 40" fill="none" xmlns="http://www.w3.org/2000/svg">
<path fill-rule="evenodd" clip-rule="evenodd" d="M26.0991 16.212C26.0581 15.9385 25.8256 15.747 25.5521 15.747H22.4068V14.4615C22.4068 13.135 21.3265 12.0547 20 12.0547C18.6735 12.0547 17.5932 13.135 17.5932 14.4615V15.747H14.4479C14.1744 15.747 13.9419 15.9385 13.9009 16.212L12.0684 27.2889C12.041 27.453 12.0821 27.6171 12.1915 27.7402C12.3009 27.8633 12.4513 27.9316 12.6154 27.9316H27.3846H27.3983C27.7128 27.9316 27.959 27.6855 27.959 27.3709C27.959 27.3026 27.9453 27.2479 27.9316 27.1932L26.0991 16.212ZM18.7145 14.4615C18.7145 13.7504 19.2889 13.1761 20 13.1761C20.7111 13.1761 21.2855 13.7504 21.2855 14.4615V15.747H18.7145V14.4615ZM14.9265 16.8684L13.2718 26.8239H26.7282L25.0735 16.8684H22.4068V20C22.4068 20.3145 22.1607 20.5607 21.8462 20.5607C21.5316 20.5607 21.2855 20.3145 21.2855 20V16.8684H18.7145V20C18.7145 20.3145 18.4684 20.5607 18.1539 20.5607C17.8393 20.5607 17.5932 20.3145 17.5932 20V16.8684H14.9265Z" fill="#AAB2B7"/>
</svg>
