<svg width="40" height="40" viewBox="0 0 40 40" fill="none" xmlns="http://www.w3.org/2000/svg">
<path fill-rule="evenodd" clip-rule="evenodd" d="M22.1744 22.9675C21.1077 23.8701 19.7402 24.4034 18.2359 24.4034C14.8444 24.4034 12.0684 21.641 12.0684 18.2359C12.0684 14.8444 14.8444 12.0684 18.2359 12.0684C21.641 12.0684 24.4034 14.8308 24.4034 18.2359C24.4034 19.7265 23.8564 21.1077 22.9675 22.1744L27.7538 26.9607C27.9726 27.1795 27.9726 27.535 27.7538 27.7538C27.6444 27.8633 27.5077 27.918 27.3573 27.918C27.2068 27.918 27.0701 27.8633 26.9607 27.7538L22.1744 22.9675ZM23.2821 18.2359C23.2821 15.4598 21.0256 13.1897 18.2359 13.1897C15.4598 13.1897 13.1897 15.4598 13.1897 18.2359C13.1897 21.012 15.4462 23.282 18.2359 23.282C21.0256 23.282 23.2821 21.0256 23.2821 18.2359Z" fill="#AAB2B7"/>
</svg>
