<svg width="48" height="15" viewBox="0 0 48 15" fill="none" xmlns="http://www.w3.org/2000/svg">
<path fill-rule="evenodd" clip-rule="evenodd" d="M34.2645 9.88418C34.2363 12.8575 31.5711 14.7761 27.47 14.7761C25.721 14.758 24.036 14.4139 23.1229 14.0135L23.672 10.8094L24.1747 11.0382C25.456 11.572 26.286 11.7878 27.8483 11.7878C28.9691 11.7878 30.1693 11.3482 30.1813 10.3899C30.1884 9.76277 29.6786 9.31622 28.1584 8.61379C26.6772 7.92842 24.7163 6.78046 24.7416 4.72434C24.7626 1.94171 27.4801 0 31.3354 0C32.8465 0 34.0577 0.311073 34.8304 0.601078L34.3027 3.70381L33.9504 3.53824C33.2319 3.24924 32.3068 2.97027 31.0302 2.99035C29.5029 2.99035 28.7947 3.62654 28.7947 4.2216C28.7866 4.89192 29.6215 5.33345 30.9861 5.99774C33.2409 7.01626 34.2817 8.25756 34.2645 9.88418ZM41.8288 0.260905H44.8431L48 14.5684H44.3805C44.3805 14.5684 44.0214 12.9237 43.9048 12.424L41.1658 12.4207L38.9085 12.4179C38.7571 12.8043 38.0888 14.5684 38.0888 14.5684H33.9916L39.7846 1.44901C40.1962 0.515784 40.8924 0.260905 41.8288 0.260905ZM41.586 5.48798C41.586 5.48798 40.3527 8.66698 40.0315 9.48882H43.2727L42.3687 5.35553L42.1056 4.12126C42.0213 4.34582 41.9135 4.62737 41.818 4.87658L41.7839 4.96528L41.7692 5.00325L41.7511 5.05014L41.7266 5.11416C41.6379 5.34499 41.5764 5.50531 41.586 5.48798ZM0.0502225 0.122425L0 0.409421C4.7072 1.55036 7.82198 4.30288 9.11453 7.61132L7.79895 1.28544C7.57209 0.413432 6.91503 0.153531 6.09898 0.122425H0.0502225ZM17.6421 0.258899L11.4978 14.5473L7.36948 14.5543L3.87546 2.61605C6.38708 4.22361 8.52656 6.77443 9.28014 8.55058L9.68756 10.0247L13.5089 0.261907L17.6421 0.258899ZM23.1229 0.246856H19.2193L16.78 14.5624H20.6814L23.1229 0.246856Z" fill="white"/>
</svg>
